<svg xmlns="http://www.w3.org/2000/svg" xmlns:xlink="http://www.w3.org/1999/xlink" id="logi_x5F_fa" x="0px" y="0px" width="98px" height="61px" viewBox="0 0 98 61" xml:space="preserve"><path fill="#012E85" d="M48.28,0h1.408C56,0.068,62.315,0.854,68.413,2.503c4.336,1.174,8.566,2.78,12.525,4.911 c3.06,1.652,5.96,3.621,8.524,5.975c2.631,2.418,4.913,5.265,6.438,8.511c1.589,3.35,2.28,7.138,1.836,10.827 c-0.435,3.819-2.053,7.436-4.333,10.505c-2.042,2.763-4.587,5.127-7.362,7.14c-3.235,2.339-6.79,4.214-10.486,5.71 c-8.538,3.45-17.789,4.895-26.968,4.917c-5.052-0.086-10.109-0.543-15.057-1.586c-4.744-0.988-9.396-2.457-13.79-4.506 c-4.806-2.253-9.35-5.207-12.996-9.097c-2.715-2.901-4.9-6.376-5.935-10.238c-0.978-3.58-0.89-7.437,0.233-10.973 c1.413-4.506,4.344-8.401,7.835-11.52c2.769-2.475,5.904-4.516,9.207-6.202c4.585-2.336,9.497-3.999,14.517-5.116 C37.745,0.615,43.012,0.061,48.28,0z M44.8,3.492c-5.62,0.367-11.207,1.465-16.492,3.422c-4.878,1.817-9.538,4.373-13.398,7.893 c-3.123,2.852-5.706,6.417-6.919,10.505c-0.989,3.285-1.01,6.851-0.059,10.146c0.946,3.331,2.819,6.346,5.151,8.884 c2.45,2.67,5.393,4.857,8.542,6.636c3.359,1.893,6.963,3.329,10.668,4.382c5.111,1.448,10.419,2.17,15.729,2.25 c8.669,0.118,17.446-1.419,25.339-5.083c3.543-1.66,6.903-3.764,9.789-6.417c2.663-2.45,4.923-5.402,6.274-8.778 c1.507-3.703,1.763-7.905,0.659-11.751c-0.995-3.55-3.04-6.738-5.577-9.386c-2.536-2.647-5.551-4.804-8.767-6.549 c-3.833-2.075-7.965-3.575-12.197-4.599C57.423,3.575,51.078,3.092,44.8,3.492z"></path><g>	<path fill="#D40129" d="M38.631,18.354c2.022,0,4.045-0.001,6.067,0.001c-0.002,3.359-0.005,6.718,0.001,10.078  c-0.019,0.142,0.048,0.336-0.099,0.43c-1.991,1.704-3.974,3.416-5.97,5.116C38.633,28.771,38.632,23.563,38.631,18.354z"></path>	<path fill="#D40129" d="M26.201,18.641c1.309-0.331,2.737,0.571,3.061,1.868c0.248,0.905-0.049,1.937-0.754,2.56  c-0.641,0.616-1.615,0.845-2.466,0.591c-1.111-0.308-1.942-1.432-1.87-2.59C24.187,19.92,25.081,18.875,26.201,18.641z"></path>	<path fill="#D40129" d="M51.827,27.593c2.271-1.229,4.957-1.678,7.508-1.282c1.643,0.267,3.31,0.97,4.341,2.329  c0.621,0.784,0.906,1.773,1.001,2.756c1.543-1.366,3.062-2.759,4.61-4.119c1.452-0.902,3.245-0.898,4.899-0.894  c3.262,0.029,6.525,0.005,9.788,0.012c0,1.792,0,3.584,0,5.375c-3.632,0.002-7.264-0.023-10.895-0.012  c-4.054,3.573-8.055,7.211-12.091,10.807c-1.454-1.313-2.921-2.612-4.373-3.93c2.535-2.292,5.092-4.562,7.629-6.852  c-2.883-0.007-5.765-0.014-8.648-0.009c-4.003,3.606-8.022,7.193-12.028,10.795c-1.453-1.319-2.92-2.621-4.379-3.933  c3.264-2.93,6.53-5.856,9.795-8.786C49.897,29.056,50.748,28.164,51.827,27.593z"></path>	<path fill="#D40129" d="M21.191,26.54c1.263-0.151,2.539-0.128,3.808-0.145c0,1.704,0.001,3.407,0,5.112  c-1.11,0.025-2.256-0.075-3.327,0.28c-0.847,0.271-1.482,1.015-1.737,1.851c-0.241,0.812,0.051,1.712,0.629,2.31  c0.612,0.595,1.46,0.936,2.314,0.927c2.068-0.003,4.137,0.001,6.206-0.003c0.007-3.491,0-6.984,0.002-10.476  c1.95,0,3.899,0.008,5.849,0.016c-0.001,3.781,0.071,7.564-0.015,11.344c-0.033,1.256-0.598,2.509-1.572,3.315  c-0.809,0.692-1.838,1.063-2.869,1.273c-1.867,0.373-3.783,0.293-5.674,0.234c-1.4-0.104-2.827,0.026-4.199-0.331  c-1.76-0.433-3.491-1.277-4.669-2.689c-1.217-1.622-1.977-3.636-1.908-5.68c0.042-1.613,0.637-3.211,1.694-4.436  C17.093,27.822,19.125,26.875,21.191,26.54z"></path>	<path fill="#D40129" d="M76.235,34.572c1.272-0.206,2.561,0.717,2.858,1.954c0.255,0.921-0.086,1.963-0.821,2.569  c-0.665,0.59-1.647,0.796-2.49,0.507c-1.109-0.348-1.912-1.512-1.778-2.678C74.088,35.747,75.067,34.724,76.235,34.572z"></path></g></svg>